<?xml version="1.0" encoding="UTF-8"?>
<svg width="59px" height="59px" viewBox="0 0 59 59" version="1.1" xmlns="http://www.w3.org/2000/svg" xmlns:xlink="http://www.w3.org/1999/xlink">
    <!-- Generator: Sketch 43.2 (39069) - http://www.bohemiancoding.com/sketch -->
    <title>Group 7</title>
    <desc>Created with Sketch.</desc>
    <defs></defs>
    <g id="Web" stroke="none" stroke-width="1" fill="none" fill-rule="evenodd">
        <g id="sobre" transform="translate(-60.000000, -137.000000)">
            <g id="Group-7" transform="translate(60.000000, 137.000000)">
                <path d="M29.5,58.5 C13.4837423,58.5 0.5,45.5162577 0.5,29.5 C0.5,13.4837423 13.4837423,0.5 29.5,0.5 C45.5162577,0.5 58.5,13.4837423 58.5,29.5 C58.5,45.5162577 45.5162577,58.5 29.5,58.5 Z M29.5,57.5 C44.963973,57.5 57.5,44.963973 57.5,29.5 C57.5,14.036027 44.963973,1.5 29.5,1.5 C14.036027,1.5 1.5,14.036027 1.5,29.5 C1.5,44.963973 14.036027,57.5 29.5,57.5 Z" id="Oval-2-Copy" fill="#EC338A" fill-rule="nonzero"></path>
                <path d="M25.0694057,36.3644318 C24.9691299,36.4647076 24.8187185,36.5148447 24.618167,36.5148447 C24.4176155,36.5148447 24.2672041,36.4647076 24.1669284,36.3644318 C20.2060359,32.0024363 18.2005508,29.7964027 18.1504129,29.7462648 C18.0501371,29.645989 18,29.4955777 18,29.2950261 C18,29.0944746 18.0501371,28.9440632 18.1504129,28.8437875 L24.1669284,22.2256205 C24.4677556,21.9247932 24.7685784,21.9247932 25.0694057,22.2256205 C25.370233,22.5264477 25.370233,22.8272705 25.0694057,23.1280978 L20.030574,28.6933746 L41.4644104,28.6933746 C41.8655134,28.6933746 42.0660619,28.8939231 42.0660619,29.2950261 C42.0660619,29.6961292 41.8655134,29.8966777 41.4644104,29.8966777 L20.030574,29.8966777 L25.0694057,35.4619545 C25.370233,35.7627818 25.370233,36.0636046 25.0694057,36.3644318 Z" id="ion-ios-arrow-thin-left---Ionicons-Copy" fill="#EE3E81"></path>
            </g>
        </g>
    </g>
</svg>