<svg version="1.1" id="Capa_1" xmlns="http://www.w3.org/2000/svg" xmlns:xlink="http://www.w3.org/1999/xlink" x="0px" y="0px"
	 width="26px" height="26px" viewBox="0 0 94 94" style="enable-background:new 0 0 94 94;" xml:space="preserve">
		<path fill="#EC2C91" d="M68.77,41.799c-7.32,0-8.34,7.307-8.34,7.307h15.566C75.997,49.105,76.089,41.799,68.77,41.799z"/>
		<path fill="#EC2C91" d="M33.453,49.105H19.658V61.77h13.157c1.979-0.055,5.633-0.676,5.633-6.153C38.448,49.041,33.453,49.105,33.453,49.105z"/>
		<path fill="#EC2C91" d="M36.804,36.154c0-4.93-3.352-4.93-3.352-4.93h-1.777H19.658v10.574h12.939C34.833,41.799,36.804,41.084,36.804,36.154z"/>
		<path fill="#EC2C91" d="M89,0H5C2.239,0,0,2.238,0,5v84c0,2.762,2.239,5,5,5h84c2.762,0,5-2.238,5-5V5C94,2.238,91.762,0,89,0z M58.389,25.594
			h19.551v5.836H58.389V25.594z M48.505,56.205c0,14.463-15.053,13.986-15.053,13.986H19.658h-0.405H8.793V22.803h10.46h0.405
			h13.795c7.493,0,13.409,4.137,13.409,12.617s-7.23,9.018-7.23,9.018C49.164,44.438,48.505,56.205,48.505,56.205z M85.079,55.43
			H60.521c0,8.805,8.34,8.248,8.34,8.248c7.877,0,7.6-5.098,7.6-5.098h8.34c0,13.529-16.216,12.604-16.216,12.604
			c-19.46,0-18.21-18.117-18.21-18.117S50.359,34.86,68.584,34.86C87.766,34.859,85.079,55.43,85.079,55.43z"/>
</svg>
