<?xml version="1.0" encoding="UTF-8"?>
<svg width="58px" height="46px" viewBox="0 0 58 46" version="1.1" xmlns="http://www.w3.org/2000/svg" xmlns:xlink="http://www.w3.org/1999/xlink">
    <!-- Generator: Sketch 43.2 (39069) - http://www.bohemiancoding.com/sketch -->
    <title>Group 2 Copy</title>
    <desc>Created with Sketch.</desc>
    <defs>
        <linearGradient x1="42444.6067%" y1="21490%" x2="28479.0694%" y2="38622%" id="linearGradient-1">
            <stop stop-color="#F05352" offset="0%"></stop>
            <stop stop-color="#F68E4A" offset="100%"></stop>
        </linearGradient>
    </defs>
    <g id="Web" stroke="none" stroke-width="1" fill="none" fill-rule="evenodd">
        <g id="sobre" transform="translate(-799.000000, -472.000000)" fill-rule="nonzero">
            <g id="Group-2-Copy" transform="translate(799.000000, 472.000000)">
                <polygon id="Shape" fill="#F68C4A" points="48.0453321 18.1297559 48 18.213723 49.4680635 20.8796804 57.5371821 6 54.4441362 6"></polygon>
                <path d="M45.4437139,22.27574 L35.8716609,39.6534433 L38.9228618,39.6534433 L46.9048032,24.906711 L54.8379255,39.5624789 L58.0251227,39.6534433 L39.6690983,5.83916856 L38.3997988,5.74820414 L40.7570694,0.0804208849 C40.7160102,-0.00575963215 21.55717,19.179451 21.55717,19.179451 L21.55717,5.88465077 L18.861652,5.88465077 L18.861652,21.8908905 L14.9944728,25.7673744 C14.9915493,25.8473819 18.8686262,25.8618374 18.8686262,25.8618374 L18.8686262,28.3983454 C18.8686262,33.8177258 15.6186613,37.4598013 10.7820721,37.4598013 C5.94548283,37.4598013 2.69551802,33.8177258 2.69551802,28.3983454 L2.69551802,5.87765351 L0,5.87765351 L0,28.7202195 C0,35.3991073 4.4320872,40.0627832 10.7820721,40.0627832 C17.132057,40.0627832 21.5641442,35.3991073 21.5641442,28.7202195 L21.5641442,25.8548402 L26.4460656,25.8548402 C26.5032591,25.894746 17.9619836,45.7375637 17.9619836,45.7375637 C18.0030428,45.8237443 43.4072553,20.3619885 43.4072553,20.3619885 C43.4101788,20.2819809 32.4473418,20.2675254 32.4473418,20.2675254 C32.3911508,20.224391 37.5663851,7.75292006 37.5663851,7.75292006 L45.4437139,22.27574 Z" id="Shape" fill="url(#linearGradient-1)"></path>
            </g>
        </g>
    </g>
</svg>