<?xml version="1.0" encoding="UTF-8"?>
<svg width="134px" height="34px" viewBox="0 0 134 34" version="1.1" xmlns="http://www.w3.org/2000/svg" xmlns:xlink="http://www.w3.org/1999/xlink">
    <!-- Generator: Sketch 47.1 (45422) - http://www.bohemiancoding.com/sketch -->
    <title>logo-uikits</title>
    <desc>Created with Sketch.</desc>
    <defs></defs>
    <g id="Page-1" stroke="none" stroke-width="1" fill="none" fill-rule="evenodd">
        <g id="logo-uikits" fill-rule="nonzero" fill="#7D808D">
            <g id="Group" transform="translate(46.000000, 2.000000)">
                <path d="M17.6,8.6 L17.6,25.3 L12.1,25.3 L12.1,22.6 C11,24.5 9.2,25.5 6.8,25.6 C5,25.6 3.5,25 2.5,23.9 C1.4,22.7 0.9,21.2 0.9,19.3 L0.9,8.6 L6.4,8.6 L6.4,17.6 C6.4,18.5 6.6,19.3 7.1,19.8 C7.6,20.3 8.2,20.6 9.1,20.6 C10.1,20.6 10.8,20.2 11.4,19.5 C12,18.8 12.2,17.9 12.2,16.8 L12.2,8.6 L17.6,8.6 Z" id="Shape"></path>
                <path d="M26.5,1.8 C27,2.3 27.3,3 27.3,3.9 C27.3,4.7 27,5.4 26.5,6 C26,6.6 25.3,6.8 24.4,6.8 C23.6,6.8 22.9,6.5 22.3,6 C21.8,5.4 21.5,4.7 21.5,3.9 C21.5,3 21.8,2.3 22.3,1.8 C22.8,1.3 23.5,1 24.4,1 C25.3,0.9 26,1.2 26.5,1.8 Z M21.8,8.6 L27.3,8.6 L27.3,25.3 L21.8,25.3 L21.8,8.6 Z" id="Shape"></path>
                <polygon id="Shape" points="42.3 25.3 38.8 19 37.1 20.8 37.1 25.3 31.6 25.3 31.6 2.4 37.1 2.4 37.1 14.2 42.4 8.6 48.6 8.6 42.5 15 48.7 25.2 42.3 25.2"></polygon>
                <path d="M55.7,1.8 C56.2,2.3 56.5,3 56.5,3.9 C56.5,4.7 56.2,5.4 55.7,6 C55.2,6.6 54.5,6.8 53.6,6.8 C52.8,6.8 52.1,6.5 51.5,6 C51,5.4 50.7,4.7 50.7,3.9 C50.7,3 51,2.3 51.5,1.8 C52,1.3 52.7,1 53.6,1 C54.4,0.9 55.1,1.2 55.7,1.8 Z M50.9,8.6 L56.4,8.6 L56.4,25.3 L50.9,25.3 L50.9,8.6 Z" id="Shape"></path>
                <path d="M71.4,24.4 C70.8,24.7 70.1,25 69.3,25.2 C68.5,25.4 67.7,25.5 66.9,25.5 C65.3,25.5 63.9,25 62.9,24.1 C61.9,23.2 61.4,21.9 61.4,20.2 L61.4,13.1 L59,13.1 L59,9.5 L61.3,9.5 L61.3,4.8 L66.8,4.8 L66.8,9.4 L71.1,9.4 L71.1,13 L66.8,13 L66.8,19.3 C66.8,20.5 67.3,21.1 68.2,21.1 C68.8,21.1 69.5,20.9 70.3,20.5 L71.4,24.4 Z" id="Shape"></path>
                <path d="M79.9,12.2 C79.4,12.2 79,12.3 78.8,12.5 C78.5,12.7 78.4,12.9 78.4,13.3 C78.4,13.7 78.6,14 79.1,14.2 C79.6,14.4 80.3,14.7 81.3,14.9 C82.5,15.2 83.5,15.6 84.3,15.9 C85.1,16.2 85.8,16.8 86.3,17.4 C86.9,18.1 87.2,19 87.2,20.1 C87.2,21.8 86.5,23.1 85.2,24.1 C83.9,25.1 82.2,25.5 80.1,25.5 C78.7,25.5 77.3,25.3 76,24.9 C74.7,24.5 73.6,23.9 72.5,23.1 L74.2,19.6 C75.1,20.3 76.1,20.8 77.2,21.1 C78.2,21.5 79.2,21.6 80.1,21.6 C80.6,21.6 81.1,21.5 81.4,21.3 C81.7,21.1 81.9,20.9 81.9,20.5 C81.9,20.1 81.7,19.8 81.2,19.5 C80.7,19.3 80,19 79,18.8 C77.8,18.5 76.9,18.1 76.1,17.8 C75.3,17.5 74.7,17 74.1,16.3 C73.5,15.6 73.3,14.7 73.3,13.7 C73.3,12 73.9,10.7 75.2,9.7 C76.5,8.7 78.1,8.3 80.1,8.3 C81.3,8.3 82.5,8.5 83.7,8.8 C84.9,9.1 86,9.6 87,10.2 L85.2,13.8 C83,12.8 81.2,12.2 79.9,12.2 Z" id="Shape"></path>
            </g>
            <g id="Group">
                <path d="M23.1,10.6 L23.1,23.2 L18.9,23.2 L18.9,21.1 C18,22.6 16.7,23.3 14.9,23.3 C13.5,23.3 12.4,22.9 11.6,22 C10.8,21.1 10.4,20 10.4,18.5 L10.4,10.5 L14.6,10.5 L14.6,17.3 C14.6,18 14.8,18.6 15.1,19 C15.5,19.4 16,19.6 16.6,19.6 C17.3,19.6 17.9,19.3 18.3,18.8 C18.7,18.3 18.9,17.6 18.9,16.8 L18.9,10.6 L23.1,10.6 Z" id="Shape"></path>
                <path d="M31,9 C32.4,9 33.5,7.9 33.5,6.5 L33.5,2.8 C33.5,1.4 32.4,0.3 31,0.3 L27.3,0.3 C25.9,0.3 24.8,1.4 24.8,2.8 L24.8,2.8 L8.8,2.8 L8.8,2.8 C8.8,1.4 7.7,0.3 6.3,0.3 L2.5,0.3 C1.2,0.3 0,1.4 0,2.8 L0,6.5 C0,7.9 1.1,9 2.5,9 L2.5,25 C1.1,25 0,26.1 0,27.5 L0,31.2 C0,32.6 1.1,33.7 2.5,33.7 L6.2,33.7 C7.6,33.7 8.7,32.6 8.7,31.2 L8.7,31 L24.7,31 L24.7,31.2 C24.7,32.6 25.8,33.7 27.2,33.7 L31,33.7 C32.4,33.7 33.5,32.6 33.5,31.2 L33.5,27.5 C33.5,26.1 32.4,25 31,25 L30.8,25 L30.8,9 L31,9 Z M26.3,2.8 C26.3,2.3 26.7,1.9 27.2,1.9 L31,1.9 C31.5,1.9 31.9,2.3 31.9,2.8 L31.9,6.5 C31.9,7 31.5,7.4 31,7.4 L30.8,7.4 L30.8,7.4 L27.3,7.4 C26.8,7.4 26.4,7 26.4,6.5 L26.4,2.8 L26.3,2.8 Z M1.6,6.5 L1.6,2.8 C1.6,2.3 2,1.9 2.5,1.9 L6.2,1.9 C6.7,1.9 7.1,2.3 7.1,2.8 L7.1,2.8 L7.1,6.5 C7.1,7 6.7,7.4 6.2,7.4 L2.5,7.4 C2,7.4 1.6,7 1.6,6.5 Z M7.2,31.2 C7.2,31.7 6.8,32.1 6.3,32.1 L2.5,32.1 C2,32.1 1.6,31.7 1.6,31.2 L1.6,27.5 C1.6,27 2,26.6 2.5,26.6 L6.2,26.6 C6.7,26.6 7.1,27 7.1,27.5 L7.1,31 L7.1,31.2 L7.2,31.2 Z M31,26.6 C31.5,26.6 31.9,27 31.9,27.5 L31.9,31.2 C31.9,31.7 31.5,32.1 31,32.1 L27.3,32.1 C26.8,32.1 26.4,31.7 26.4,31.2 L26.4,31 L26.4,27.5 C26.4,27 26.8,26.6 27.3,26.6 L30.8,26.6 L31,26.6 Z M29.2,25 L27.3,25 L27.2,25 C25.9,25 24.9,26.1 24.9,27.3 L24.9,27.4 L24.9,29.4 L8.9,29.4 L8.9,27.4 L8.9,27.3 C8.9,26 7.8,25 6.6,25 L6.2,25 L4.1,25 L4.1,9 L6.3,9 C6.3,9 6.3,9 6.3,9 L6.4,9 C7.7,9 8.7,7.9 8.7,6.7 L8.7,6.5 L8.7,4.4 L24.7,4.4 L24.7,6.5 L24.7,6.6 C24.7,7.9 25.8,8.9 27,8.9 L27.1,8.9 C27.1,8.9 27.1,8.9 27.1,8.9 L29,8.9 L29,25 L29.2,25 Z" id="Shape"></path>
            </g>
        </g>
    </g>
</svg>