<?xml version="1.0" encoding="UTF-8"?>
<svg width="132px" height="27px" viewBox="0 0 132 27" version="1.1" xmlns="http://www.w3.org/2000/svg" xmlns:xlink="http://www.w3.org/1999/xlink">
    <!-- Generator: Sketch 43.2 (39069) - http://www.bohemiancoding.com/sketch -->
    <title>adesivo_uxnow</title>
    <desc>Created with Sketch.</desc>
    <defs></defs>
    <g id="Page-1" stroke="none" stroke-width="1" fill="none" fill-rule="evenodd">
        <g id="sobre" transform="translate(-438.000000, -497.000000)" fill-rule="nonzero">
            <g id="adesivo_uxnow" transform="translate(438.000000, 497.000000)">
                <path d="M5.69306122,1.674 L5.69306122,14.994 C5.57727227,16.6767546 5.98851007,18.3537615 6.86938776,19.791 C7.72206648,20.8950664 9.07253631,21.4940074 10.4612245,21.384 C11.7965613,21.4681985 13.0936799,20.9181704 13.9632653,19.899 C14.8472473,18.6401373 15.2721201,17.114746 15.1665306,15.579 L15.1665306,1.674 L20.3118367,1.674 L20.3118367,15.579 C20.3118367,19.071 19.4138776,21.795 17.6179592,23.751 C15.6828048,25.7655305 12.9688808,26.8364846 10.1828571,26.685 C6.97414966,26.685 4.47782313,25.716 2.69387755,23.778 C0.909931973,21.84 0.0119727891,19.119 0,15.615 L0,1.674 L5.69306122,1.674 Z" id="Shape" fill="#AFB5C5"></path>
                <polygon id="Shape" fill="#AFB5C5" points="23.0865306 25.893 31.7338776 13.374 23.2032653 1.674 30.2522449 1.674 35.2359184 8.604 39.9142857 1.674 46.2 1.674 38.4146939 12.879 47.8971429 25.893 40.8032653 25.893 34.9665306 17.685 29.3991837 25.902"></polygon>
                <polygon id="Shape" fill="#7D808D" points="50.16 25.893 50.16 0.9 50.7077551 0.9 65.7485714 15.03 65.7485714 1.674 71.0644898 1.674 71.0644898 26.82 70.5616327 26.82 55.4759184 12.69 55.4759184 25.893"></polygon>
                <path d="M75.0963265,13.788 C75.0748424,12.0691188 75.3795714,10.3618124 75.9942857,8.757 C76.603371,7.18984161 77.5193292,5.76075947 78.6881633,4.554 C79.8051658,3.39037895 81.1503937,2.47109355 82.6391837,1.854 C87.2645629,-0.0984997557 92.6112373,0.991128176 96.1085714,4.599 C97.2836905,5.77300515 98.201236,7.18004029 98.802449,8.73 C99.4141307,10.3481753 99.7186788,12.0666784 99.7004082,13.797 C99.7084737,15.2463797 99.4934282,16.6883339 99.0628571,18.072 C98.6483856,19.3895296 98.0104797,20.6256173 97.1771429,21.726 C96.0345373,23.265404 94.5494978,24.516535 92.84,25.38 C89.6733886,26.9854143 85.9625711,27.1137779 82.6930612,25.731 C81.2031434,25.1062411 79.8534955,24.1881085 78.7240816,23.031 C77.5585711,21.8284849 76.6429051,20.4059769 76.0302041,18.846 C75.3968311,17.2360082 75.0797293,15.5185444 75.0963265,13.788 L75.0963265,13.788 Z M81.0228571,13.788 C80.949458,15.7109435 81.5892474,17.592993 82.8187755,19.071 C83.9448253,20.4186726 85.6086011,21.1972507 87.362449,21.1972507 C89.1162968,21.1972507 90.7800726,20.4186726 91.9061224,19.071 C94.3477274,15.9572798 94.3477274,11.5737202 91.9061224,8.46 C90.7800726,7.11232738 89.1162968,6.33374934 87.362449,6.33374934 C85.6086011,6.33374934 83.9448253,7.11232738 82.8187755,8.46 C81.5824814,9.95181045 80.9425293,11.8503739 81.0228571,13.788 Z" id="Shape" fill="#7D808D"></path>
                <polygon id="Shape" fill="#7D808D" points="110.754286 26.685 100.652245 1.674 106.48 1.674 111.176327 14.733 116.222857 0.891 116.671837 0.891 121.754286 14.733 126.405714 1.674 131.793469 1.674 121.754286 26.685 121.386122 26.685 116.222857 12.843 111.176327 26.685"></polygon>
            </g>
        </g>
    </g>
</svg>