<?xml version="1.0" encoding="UTF-8"?>
<svg width="134px" height="34px" viewBox="0 0 134 34" version="1.1" xmlns="http://www.w3.org/2000/svg" xmlns:xlink="http://www.w3.org/1999/xlink">
    <!-- Generator: Sketch 47.1 (45422) - http://www.bohemiancoding.com/sketch -->
    <title>logo-uikits-hover</title>
    <desc>Created with Sketch.</desc>
    <defs></defs>
    <g id="Page-1" stroke="none" stroke-width="1" fill="none" fill-rule="evenodd">
        <g id="logo-uikits-hover" fill-rule="nonzero" fill="#00DF6A">
            <g id="Group" transform="translate(47.000000, 2.000000)">
                <path d="M17.1,8.4 L17.1,25 L11.6,25 L11.6,22.3 C10.5,24.2 8.7,25.2 6.3,25.3 C4.5,25.3 3,24.7 2,23.6 C0.9,22.4 0.4,20.9 0.4,19 L0.4,8.4 L5.9,8.4 L5.9,17.4 C5.9,18.3 6.1,19.1 6.6,19.6 C7.1,20.1 7.7,20.4 8.6,20.4 C9.6,20.4 10.3,20 10.9,19.3 C11.5,18.6 11.7,17.7 11.7,16.6 L11.7,8.4 L17.1,8.4 L17.1,8.4 Z" id="Shape"></path>
                <path d="M26,1.5 C26.5,2 26.8,2.7 26.8,3.6 C26.8,4.4 26.5,5.1 26,5.7 C25.5,6.3 24.8,6.5 23.9,6.5 C23.1,6.5 22.4,6.2 21.8,5.7 C21.3,5.1 21,4.4 21,3.6 C21,2.7 21.3,2 21.8,1.5 C22.3,1 23,0.7 23.9,0.7 C24.8,0.7 25.5,1 26,1.5 Z M21.3,8.4 L26.8,8.4 L26.8,25 L21.3,25 L21.3,8.4 Z" id="Shape"></path>
                <polygon id="Shape" points="41.7 25 38.2 18.7 36.5 20.5 36.5 25 31 25 31 2.2 36.5 2.2 36.5 14 41.8 8.4 48 8.4 42 14.8 48.2 25"></polygon>
                <path d="M55.2,1.5 C55.7,2 56,2.7 56,3.6 C56,4.4 55.7,5.1 55.2,5.7 C54.7,6.3 54,6.5 53.1,6.5 C52.3,6.5 51.6,6.2 51,5.7 C50.5,5.1 50.2,4.4 50.2,3.6 C50.2,2.7 50.5,2 51,1.5 C51.5,1 52.2,0.7 53.1,0.7 C53.9,0.7 54.6,1 55.2,1.5 Z M50.4,8.4 L55.9,8.4 L55.9,25 L50.4,25 L50.4,8.4 Z" id="Shape"></path>
                <path d="M70.9,24.2 C70.3,24.5 69.6,24.8 68.8,25 C68,25.2 67.2,25.3 66.4,25.3 C64.8,25.3 63.4,24.8 62.4,23.9 C61.4,23 60.9,21.7 60.9,20 L60.9,12.9 L58.6,12.9 L58.6,9.3 L60.9,9.3 L60.9,4.7 L66.4,4.7 L66.4,9.3 L70.7,9.3 L70.7,12.9 L66.4,12.9 L66.4,19.2 C66.4,20.4 66.9,21 67.8,21 C68.4,21 69.1,20.8 69.9,20.4 L70.9,24.2 Z" id="Shape"></path>
                <path d="M79.3,11.9 C78.8,11.9 78.4,12 78.2,12.2 C77.9,12.4 77.8,12.6 77.8,13 C77.8,13.4 78,13.7 78.5,13.9 C79,14.1 79.7,14.4 80.7,14.6 C81.9,14.9 82.9,15.3 83.7,15.6 C84.5,15.9 85.2,16.5 85.7,17.1 C86.3,17.8 86.6,18.7 86.6,19.8 C86.6,21.5 85.9,22.8 84.6,23.8 C83.3,24.8 81.6,25.2 79.5,25.2 C78.1,25.2 76.7,25 75.4,24.6 C74.1,24.2 73,23.6 71.9,22.8 L73.6,19.3 C74.5,20 75.5,20.5 76.6,20.8 C77.6,21.2 78.6,21.3 79.5,21.3 C80,21.3 80.5,21.2 80.8,21 C81.1,20.8 81.3,20.6 81.3,20.2 C81.3,19.8 81.1,19.5 80.6,19.2 C80.1,19 79.4,18.7 78.4,18.5 C77.2,18.2 76.3,17.8 75.5,17.5 C74.7,17.2 74.1,16.7 73.5,16 C72.9,15.3 72.7,14.4 72.7,13.4 C72.7,11.7 73.3,10.4 74.6,9.4 C75.9,8.4 77.5,8 79.5,8 C80.7,8 81.9,8.2 83.1,8.5 C84.3,8.8 85.4,9.3 86.4,9.9 L84.6,13.5 C82.5,12.5 80.7,11.9 79.3,11.9 Z" id="Shape"></path>
            </g>
            <g id="Group">
                <path d="M23.6,10.3 L23.6,23 L19.4,23 L19.4,20.9 C18.5,22.4 17.2,23.1 15.4,23.1 C14,23.1 12.9,22.7 12.1,21.8 C11.3,20.9 10.9,19.8 10.9,18.3 L10.9,10.3 L15,10.3 L15,17.1 C15,17.8 15.2,18.4 15.5,18.8 C15.9,19.2 16.4,19.4 17,19.4 C17.7,19.4 18.3,19.1 18.7,18.6 C19.1,18.1 19.3,17.4 19.3,16.6 L19.3,10.4 L23.6,10.4 L23.6,10.3 Z" id="Shape"></path>
                <path d="M31.4,8.7 C32.8,8.7 33.9,7.6 33.9,6.2 L33.9,2.5 C33.9,1.1 32.8,0 31.4,0 L27.7,0 C26.3,0 25.2,1.1 25.2,2.5 L25.2,2.5 L9.2,2.5 L9.2,2.5 C9.2,1.1 8.1,0 6.7,0 L3,0 C1.6,0 0.5,1.1 0.5,2.5 L0.5,6.2 C0.5,7.6 1.6,8.7 3,8.7 L3,24.7 C1.6,24.7 0.5,25.8 0.5,27.2 L0.5,31 C0.5,32.4 1.6,33.5 3,33.5 L6.7,33.5 C8.1,33.5 9.2,32.4 9.2,31 L9.2,30.8 L25.2,30.8 L25.2,31 C25.2,32.4 26.3,33.5 27.7,33.5 L31.4,33.5 C32.8,33.5 33.9,32.4 33.9,31 L33.9,27.3 C33.9,25.9 32.8,24.8 31.4,24.8 L31.2,24.8 L31.2,8.8 L31.4,8.8 L31.4,8.7 Z M26.8,2.5 C26.8,2 27.2,1.6 27.7,1.6 L31.4,1.6 C31.9,1.6 32.3,2 32.3,2.5 L32.3,6.2 C32.3,6.7 31.9,7.1 31.4,7.1 L31.2,7.1 L31.2,7.1 L27.7,7.1 C27.2,7.1 26.8,6.7 26.8,6.2 L26.8,2.5 L26.8,2.5 Z M2.1,6.2 L2.1,2.5 C2.1,2 2.5,1.6 3,1.6 L6.7,1.6 C7.2,1.6 7.6,2 7.6,2.5 L7.6,2.5 L7.6,6.2 C7.6,6.7 7.2,7.1 6.7,7.1 L3,7.1 C2.5,7.2 2.1,6.8 2.1,6.2 Z M7.7,31 C7.7,31.5 7.3,31.9 6.8,31.9 L3,31.9 C2.5,31.9 2.1,31.5 2.1,31 L2.1,27.3 C2.1,26.8 2.5,26.4 3,26.4 L6.7,26.4 C7.2,26.4 7.6,26.8 7.6,27.3 L7.6,30.8 L7.6,31 L7.7,31 Z M31.4,26.3 C31.9,26.3 32.3,26.7 32.3,27.2 L32.3,31 C32.3,31.5 31.9,31.9 31.4,31.9 L27.7,31.9 C27.2,31.9 26.8,31.5 26.8,31 L26.8,30.8 L26.8,27.3 C26.8,26.8 27.2,26.4 27.7,26.4 L31.2,26.4 L31.4,26.4 L31.4,26.3 Z M29.7,24.8 L27.8,24.8 L27.7,24.8 C26.4,24.8 25.4,25.9 25.4,27.1 L25.4,27.2 L25.4,29.2 L9.4,29.2 L9.4,27.2 L9.4,27.1 C9.4,25.8 8.3,24.8 7.1,24.8 L6.7,24.8 L4.5,24.8 L4.5,8.8 L6.7,8.8 C6.7,8.8 6.7,8.8 6.7,8.8 L6.8,8.8 C8.1,8.8 9.1,7.7 9.1,6.5 L9.1,6.4 L9.1,4.3 L25.1,4.3 L25.1,6.4 L25.1,6.5 C25.1,7.8 26.2,8.8 27.4,8.8 L27.5,8.8 C27.5,8.8 27.5,8.8 27.5,8.8 L29.4,8.8 L29.4,24.8 L29.7,24.8 Z" id="Shape"></path>
            </g>
        </g>
    </g>
</svg>