<?xml version="1.0" encoding="UTF-8"?>
<svg width="139px" height="36px" viewBox="0 0 139 36" version="1.1" xmlns="http://www.w3.org/2000/svg" xmlns:xlink="http://www.w3.org/1999/xlink">
    <!-- Generator: Sketch 43.2 (39069) - http://www.bohemiancoding.com/sketch -->
    <title>logotipo</title>
    <desc>Created with Sketch.</desc>
    <defs></defs>
    <g id="Page-1" stroke="none" stroke-width="1" fill="none" fill-rule="evenodd">
        <g id="sobre" transform="translate(-615.000000, -491.000000)" fill-rule="nonzero">
            <g id="logotipo" transform="translate(615.000000, 491.000000)">
                <path d="M53.3556811,31.6476923 C52.2104319,33.1246154 50.2524252,34.1769231 47.726412,34.1769231 C42.5727907,34.1769231 40.3377076,30.6461538 40.3377076,25.8692308 L40.3377076,13.3846154 C40.2906122,12.4982558 40.6223586,11.6336076 41.2503402,11.0059736 C41.8783217,10.3783396 42.7434486,10.0467767 43.630299,10.0938462 C45.5883056,10.0938462 47.0198671,11.4276923 47.0198671,13.3846154 L47.0198671,25.3846154 C47.0198671,27.1476923 47.9757807,28.3430769 49.7906312,28.3430769 C51.7486379,28.3430769 52.9862458,26.9123077 52.9862458,24.9092308 L52.9862458,13.3707692 C52.9391504,12.4844096 53.2708968,11.6197615 53.8988784,10.9921275 C54.5268599,10.3644935 55.3919868,10.0329306 56.2788372,10.08 C58.2368439,10.08 59.6684053,11.4138462 59.6684053,13.3707692 L59.6684053,30.6323077 C59.6684053,32.5892308 58.4769767,33.9230769 56.5189701,33.9230769 C55.1828461,33.9230769 54.180753,33.2553846 53.512691,31.92 L53.3556811,31.6476923 Z" id="Shape" fill="#7D808D"></path>
                <path d="M69.6800997,0.461538462 C71.720434,0.461538462 73.3744518,2.11464092 73.3744518,4.15384615 C73.3744518,6.19305138 71.720434,7.84615385 69.6800997,7.84615385 C67.6397653,7.84615385 65.9857475,6.19305138 65.9857475,4.15384615 C65.9719309,3.17041698 66.3567178,2.22321943 67.0525609,1.52776144 C67.7484039,0.832303448 68.696126,0.447729491 69.6800997,0.461538462 L69.6800997,0.461538462 Z M73.0188704,13.3846154 L73.0188704,30.6461538 C73.0188704,32.4890856 71.5240518,33.9830769 69.6800997,33.9830769 C67.8361475,33.9830769 66.3413289,32.4890856 66.3413289,30.6461538 L66.3413289,13.3846154 C66.3413289,11.5416837 67.8361475,10.0476923 69.6800997,10.0476923 C71.5240518,10.0476923 73.0188704,11.5416837 73.0188704,13.3846154 L73.0188704,13.3846154 Z" id="Shape" fill="#7D808D"></path>
                <path d="M83.0721262,34.5692308 C82.0131861,34.6118787 80.9840339,34.2133539 80.230278,33.4687647 C79.4765221,32.7241756 79.0657815,31.7003185 79.0960797,30.6415385 L79.0960797,4.46769231 C79.0960799,2.27299781 80.8762165,0.493846489 83.0721262,0.493846489 C85.268036,0.493846489 87.0481726,2.27299781 87.0481728,4.46769231 L87.0481728,30.6461538 C87.077167,31.7041439 86.6658514,32.7267725 85.912246,33.4703382 C85.1586406,34.213904 84.1302418,34.6118096 83.0721262,34.5692308 Z M83.0721262,1.8 C82.3496585,1.75180936 81.6409571,2.0140944 81.124131,2.52093837 C80.6073048,3.02778233 80.3314936,3.73099472 80.3660133,4.45384615 L80.3660133,30.6323077 C80.4259437,32.0813374 81.6187471,33.2252203 83.0698173,33.2252203 C84.5208874,33.2252203 85.7136909,32.0813374 85.7736213,30.6323077 L85.7736213,4.46769231 C85.808013,3.74569756 85.5328143,3.04328864 85.0170363,2.53660794 C84.5012583,2.02992723 83.7938205,1.76703125 83.0721262,1.81384615 L83.0721262,1.8 Z" id="Shape" fill="#7D808D"></path>
                <path d="M100.620299,34.8092308 C95.3743189,34.8092308 92.1140532,31.02 92.1140532,24.9230769 L92.1140532,19.1076923 C92.1140532,13.0107692 95.3743189,9.22153846 100.620299,9.22153846 C102.570268,9.17817461 104.460947,9.89299204 105.893987,11.2153846 C106.582986,10.0788341 107.83486,9.40552886 109.163488,9.45692308 C111.426279,9.45692308 112.950199,11.0353846 112.950199,13.3846154 L112.950199,30.6461538 C112.950199,32.9953846 111.430897,34.5738462 109.163488,34.5738462 C107.840944,34.6247219 106.594085,33.9575098 105.903223,32.8292308 C104.47915,34.1705519 102.575683,34.8839572 100.620299,34.8092308 L100.620299,34.8092308 Z M100.620299,10.5 C96.0023588,10.5 93.3839867,13.6384615 93.3839867,19.1169231 L93.3839867,24.9323077 C93.3839867,30.4061538 96.0208306,33.5492308 100.620299,33.5492308 C102.716844,33.5492308 104.425482,32.7784615 105.556877,31.3153846 L106.235714,30.4384615 L106.743688,31.7076923 C107.105697,32.7166819 108.087995,33.368056 109.15887,33.3092308 C110.710498,33.3092308 111.67103,32.2938462 111.67103,30.6553846 L111.67103,13.3938462 C111.67103,11.7553846 110.70588,10.74 109.15887,10.74 C108.083893,10.6803699 107.098343,11.3364128 106.73907,12.3507692 L106.240332,13.5923077 L105.556877,12.7384615 C104.35619,11.2565595 102.526811,10.4270386 100.620299,10.5 Z M102.43515,29.0030769 C100.223156,29.0030769 98.7962126,27.4061538 98.7962126,24.9323077 L98.7962126,19.1169231 C98.7962126,16.6430769 100.227774,15.0461538 102.43515,15.0461538 C104.642525,15.0461538 106.26804,16.7169231 106.26804,19.1169231 L106.26804,24.9323077 C106.26804,27.3184615 104.688704,28.9938462 102.43515,28.9938462 L102.43515,29.0030769 Z M102.43515,16.32 C100.297043,16.32 100.066146,18.2769231 100.066146,19.1169231 L100.066146,24.9323077 C100.066146,25.7723077 100.297043,27.7292308 102.43515,27.7292308 C103.991395,27.7292308 104.998106,26.6307692 104.998106,24.9323077 L104.998106,19.1169231 C104.993488,17.4230769 103.991395,16.3061538 102.43515,16.3061538 L102.43515,16.32 Z" id="Shape" fill="#7D808D"></path>
                <path d="M130.355216,34.8092308 C128.400754,34.8814674 126.499098,34.1664546 125.07691,32.8246154 C124.386048,33.9528944 123.139189,34.6201066 121.816645,34.5692308 C119.553854,34.5692308 118.029934,32.9907692 118.029934,30.6415385 L118.029934,4.70307692 C117.986921,3.64066247 118.393604,2.60927144 119.150257,1.86182067 C119.90691,1.11436989 120.943552,0.719987864 122.00598,0.775384615 C123.06492,0.732736661 124.094072,1.1312615 124.847828,1.87585065 C125.601584,2.62043979 126.012325,3.64429684 125.982027,4.70307692 L125.982027,10.5 C127.276846,9.64261924 128.802309,9.19988419 130.355216,9.23076923 C135.601196,9.23076923 138.861462,13.02 138.861462,19.1169231 L138.861462,24.9323077 C138.861462,31.02 135.601196,34.8092308 130.355216,34.8092308 Z M124.739801,30.4246154 L125.418638,31.3015385 C126.550033,32.7646154 128.258671,33.5353846 130.355216,33.5353846 C134.973156,33.5353846 137.591528,30.3969231 137.591528,24.9184615 L137.591528,19.1030769 C137.591528,13.6292308 134.954684,10.4861538 130.355216,10.4861538 C128.653342,10.4314323 127.00542,11.0868923 125.806545,12.2953846 L124.712093,13.4353846 L124.712093,4.70769231 C124.746613,3.98484088 124.470801,3.28162848 123.953975,2.77478452 C123.437149,2.26794056 122.728448,2.00565552 122.00598,2.05384615 C120.361993,2.05384615 119.299867,3.09692308 119.299867,4.70769231 L119.299867,30.6461538 C119.299867,32.2846154 120.265017,33.3 121.812027,33.3 C122.887004,33.3596301 123.872554,32.7035872 124.231827,31.6892308 L124.739801,30.4246154 Z M128.544983,28.9892308 C126.286811,28.9892308 124.712093,27.3184615 124.712093,24.9184615 L124.712093,19.1030769 C124.712093,16.7076923 126.286811,15.0323077 128.544983,15.0323077 C130.803156,15.0323077 132.188538,16.6292308 132.188538,19.1030769 L132.188538,24.9184615 C132.18392,27.3969231 130.752359,28.9938462 128.540365,28.9938462 L128.544983,28.9892308 Z M128.544983,16.3061538 C126.988738,16.3061538 125.982027,17.4046154 125.982027,19.1030769 L125.982027,24.9184615 C125.982027,26.6169231 126.988738,27.7153846 128.544983,27.7153846 C130.68309,27.7153846 130.913987,25.7584615 130.913987,24.9184615 L130.913987,19.1030769 C130.913987,18.2630769 130.68309,16.3061538 128.540365,16.3061538 L128.544983,16.3061538 Z" id="Shape" fill="#7D808D"></path>
                <path d="M24.7290698,21.2723077 L24.5212625,21.0046154 L24.7290698,20.7369231 C26.8579402,18.0092308 27.4998339,15.4246154 26.4561794,13.6430769 C25.4125249,11.8615385 23.1220266,11.4507692 21.3764452,11.4507692 C20.7227963,11.4534562 20.0701136,11.5012623 19.4230565,11.5938462 L19.0859468,11.64 L18.9566445,11.3261538 C17.6497674,8.11846154 15.7240864,6.28153846 13.6875748,6.28153846 C11.6510631,6.28153846 9.72076412,8.12769231 8.41388704,11.3261538 L8.28458472,11.64 L7.94747508,11.5938462 C7.30195195,11.5014011 6.65081448,11.4535952 5.99870432,11.4507692 C4.2623588,11.4507692 1.97647841,11.8292308 0.9189701,13.6430769 C-0.138538206,15.4569231 0.521827243,18.0092308 2.65069767,20.7369231 L2.85850498,21.0046154 L2.65069767,21.2723077 C0.521827243,24 -0.120066445,26.5846154 0.9189701,28.3661538 C1.95800664,30.1476923 4.25312292,30.5584615 5.99870432,30.5584615 C6.65388632,30.5557669 7.30810417,30.5079614 7.95671096,30.4153846 L8.2938206,30.3692308 L8.42312292,30.6830769 C9.73461794,33.8907692 11.6556811,35.7276923 13.6875748,35.7276923 C15.7194684,35.7276923 17.6405316,33.8815385 18.9520266,30.6830769 L19.0813289,30.3692308 L19.4184385,30.4153846 C20.067039,30.5080196 20.7212609,30.5558254 21.3764452,30.5584615 C23.1127907,30.5584615 25.3986711,30.18 26.4561794,28.3661538 C27.5136877,26.5523077 26.8579402,24 24.7290698,21.2723077 Z M19.9956811,12.6646154 C20.4555919,12.6114452 20.9180907,12.5837107 21.3810631,12.5815385 C23.4129568,12.5815385 24.86299,13.1584615 25.4679402,14.2061538 C26.2114286,15.4938462 25.6988372,17.5015385 24.0825581,19.7123077 L23.7731561,20.1276923 L23.4129568,19.7538462 C22.5257047,18.844065 21.5717602,18.0017261 20.5590698,17.2338462 L20.4159136,17.1230769 L20.3928239,16.9430769 C20.2318909,15.6828066 19.9771987,14.4362769 19.6308638,13.2138462 L19.4877076,12.7153846 L19.9956811,12.6646154 Z M9.64687708,11.3815385 C10.7598007,8.82 12.200598,7.41230769 13.7060465,7.41230769 C15.211495,7.41230769 16.6476744,8.82 17.760598,11.3815385 L17.9684053,11.8430769 L17.4650498,11.9676923 C16.239252,12.2796976 15.038357,12.6823456 13.8722924,13.1723077 L13.7060465,13.2415385 L13.5398007,13.1723077 C12.3736639,12.6825365 11.1727834,12.2798933 9.94704319,11.9676923 L9.44368771,11.8430769 L9.64687708,11.3815385 Z M1.92568106,14.1923077 C2.53063123,13.1446154 3.98528239,12.5676923 6.01717608,12.5676923 C6.48014941,12.5698363 6.94264976,12.597571 7.40255814,12.6507692 L7.91976744,12.7107692 L7.799701,13.2230769 C7.44511749,14.447924 7.18270211,15.6975642 7.01465116,16.9615385 L6.99156146,17.1415385 L6.84840532,17.2523077 C5.83437249,18.0203109 4.87890161,18.8626347 3.98990033,19.7723077 L3.629701,20.1461538 L3.320299,19.7307692 C1.69478405,17.5015385 1.18219269,15.4938462 1.92568106,14.1923077 Z M7.41179402,29.3261538 C6.95188482,29.3793427 6.48938499,29.4070774 6.02641196,29.4092308 C3.99451827,29.4092308 2.54448505,28.8323077 1.93953488,27.7846154 C1.19604651,26.4969231 1.70401993,24.4892308 3.32491694,22.2784615 L3.63431894,21.8630769 L3.99451827,22.2369231 C4.881865,23.1466049 5.83580181,23.988937 6.84840532,24.7569231 L6.99156146,24.8676923 L7.01465116,25.0476923 C7.17641712,26.3081947 7.43266362,27.5547766 7.78122924,28.7769231 L7.92438538,29.2753846 L7.41179402,29.3261538 Z M17.7559801,30.6092308 C16.6384385,33.1707692 15.1976412,34.5784615 13.7060465,34.5784615 C12.2144518,34.5784615 10.7782724,33.1707692 9.65611296,30.6092308 L9.44830565,30.1476923 L9.95166113,30.0230769 C11.1759103,29.7109183 12.3752588,29.3082713 13.5398007,28.8184615 L13.7060465,28.7492308 L13.8722924,28.8184615 C15.0369063,29.3080806 16.2362404,29.7107228 17.4604319,30.0230769 L17.9637874,30.1476923 L17.7559801,30.6092308 Z M18.3193688,25.6476923 C18.403175,25.7710719 18.5328728,25.8558274 18.6795681,25.8830769 L19.1044186,25.9661538 L19.0212957,26.3953846 C18.8757596,27.1613256 18.6907963,27.9192553 18.4671429,28.6661538 L18.3470764,29.0630769 L17.9591694,28.9615385 C17.2143672,28.782026 16.4791677,28.5648231 15.756412,28.3107692 L15.3361794,28.1630769 L15.4931894,27.7430769 C15.5726027,27.5259803 15.5123835,27.2824389 15.3409305,27.127304 C15.1694774,26.9721692 14.9210318,26.936423 14.7127575,27.0369231 C14.4356811,27.1707692 14.1678405,27.2953846 13.8953821,27.42 L13.7152824,27.5030769 L13.5351827,27.42 C13.2673422,27.3 12.9948837,27.1707692 12.7178073,27.0369231 C12.509533,26.936423 12.2610873,26.9721692 12.0896343,27.127304 C11.9181813,27.2824389 11.8579621,27.5259803 11.9373754,27.7430769 L12.0943854,28.1630769 L11.6741528,28.3107692 C10.9483519,28.5650772 10.2100648,28.7822815 9.46215947,28.9615385 L9.06039867,29.0584615 L8.94033223,28.6615385 C8.71743943,27.9206687 8.53248179,27.1689238 8.3861794,26.4092308 L8.30305648,25.9753846 L8.7417608,25.8969231 C8.89163733,25.8714905 9.02486941,25.786602 9.11119601,25.6615385 C9.19588351,25.5367377 9.22741028,25.3833896 9.1988208,25.235326 C9.17023132,25.0872625 9.08387499,24.9566511 8.95880399,24.8723077 C7.40108208,23.8382445 5.96098688,22.6372816 4.6641196,21.2907692 L4.37780731,20.9907692 L4.6641196,20.6907692 C5.96131276,19.3446066 7.40136799,18.1436771 8.95880399,17.1092308 C9.15037092,16.9799999 9.24448931,16.7476454 9.1968248,16.5216177 C9.1491603,16.29559 8.96921852,16.1209652 8.7417608,16.08 L8.30767442,16.0015385 L8.39079734,15.5676923 C8.5356545,14.8096183 8.71907065,14.0594147 8.94033223,13.32 L9.06039867,12.9230769 L9.46215947,13.02 C10.2070552,13.199164 10.9422723,13.416372 11.6649169,13.6707692 L12.0851495,13.8184615 L11.9281395,14.2384615 C11.8607626,14.4125826 11.8841154,14.6087594 11.9904875,14.7622203 C12.0968597,14.9156812 12.2724196,15.0064716 12.4592027,15.0046154 C12.5458561,15.0042113 12.631228,14.9836702 12.7085714,14.9446154 C12.9856478,14.8107692 13.2581063,14.6861538 13.5259468,14.5615385 L13.7060465,14.4784615 L13.8861462,14.5615385 C14.1539867,14.6815385 14.4218272,14.8061538 14.6989037,14.94 C14.9071736,15.0458775 15.1592196,15.0122765 15.3324412,14.8555414 C15.5056628,14.6988062 15.5641031,14.4514716 15.4793355,14.2338462 L15.3269435,13.8184615 L15.7471761,13.6707692 C16.4712973,13.4148085 17.208053,13.1960608 17.9545515,13.0153846 L18.3563123,12.9184615 L18.4763787,13.3153846 C18.6979639,14.0562703 18.8813831,14.808027 19.0259136,15.5676923 L19.1090365,16.0015385 L18.6749502,16.08 C18.5241117,16.1060481 18.3905698,16.1928023 18.305515,16.32 C18.2208275,16.4448007 18.1893007,16.5981489 18.2178902,16.7462124 C18.2464796,16.8942759 18.332836,17.0248873 18.457907,17.1092308 C20.0157048,18.1414327 21.4558343,19.3408764 22.7525914,20.6861538 L23.0389037,20.9861538 L22.7525914,21.2861538 C21.4610095,22.627018 20.027151,23.8233022 18.4763787,24.8538462 C18.3444889,24.9367981 18.2524905,25.0702632 18.2219294,25.2229844 C18.1913682,25.3757057 18.2249286,25.5342686 18.3147508,25.6615385 L18.3193688,25.6476923 Z M25.481794,27.7846154 C24.8768439,28.8323077 23.4221927,29.4092308 21.390299,29.4092308 C20.9273238,29.4071434 20.4648204,29.3794086 20.0049169,29.3261538 L19.4877076,29.2661538 L19.6308638,28.7676923 C19.9794294,27.5455458 20.2356759,26.2989639 20.3974419,25.0384615 L20.4205316,24.8584615 L20.5636877,24.7476923 C21.5764109,23.9798522 22.5303582,23.1375108 23.4175748,22.2276923 L23.7777741,21.8538462 L24.0871761,22.2692308 C25.712691,24.5030769 26.2206645,26.5107692 25.4771761,27.7984615 L25.481794,27.7846154 Z" id="Shape" fill="#AFB5C5"></path>
                <path d="M13.7014286,17.3076923 C11.8192201,17.3076923 10.2933887,18.8326793 10.2933887,20.7138462 C10.2933887,22.595013 11.8192201,24.12 13.7014286,24.12 C15.583637,24.12 17.1094684,22.595013 17.1094684,20.7138462 C17.1069246,18.8337334 15.5825823,17.3102347 13.7014286,17.3076923 Z M13.7014286,22.9153846 C12.4848792,22.9153846 11.4986711,21.9297223 11.4986711,20.7138462 C11.4986711,19.49797 12.4848792,18.5123077 13.7014286,18.5123077 C14.9179779,18.5123077 15.904186,19.49797 15.904186,20.7138462 C15.9016458,21.9286691 14.9169242,22.9128458 13.7014286,22.9153846 Z" id="Shape" fill="#AFB5C5"></path>
            </g>
        </g>
    </g>
</svg>